<svg xmlns="http://www.w3.org/2000/svg" width="48" height="48" viewBox="0 0 48 48"><g fill="none" transform="translate(12 2)"><path fill="#44475A" d="M12.45 1.25Q6.23-2.5 0 4.99q0 5 6.22 8.75l6.23-6.25 6.22 6.25q6.22-3.75 6.22-8.75-6.23-7.49-12.44-3.74"/><ellipse cx="12.45" cy="13.73" fill="#F8F8F2" rx="9.96" ry="9.99"/><path fill="#282A36" d="M2.49 7.5q0-6.25 9.96-3.75 9.96-2.5 9.95 3.74 2.49-2.5 0 6.25-3.73-3.75-9.95-3.75t-9.96 3.75Q0 5 2.49 7.49"/><ellipse cx="8.71" cy="12.49" fill="#F55" rx="1.87" ry="1.87"/><ellipse cx="16.18" cy="12.49" fill="#F55" rx="1.87" ry="1.87"/><circle cx="8.71" cy="12.49" r="1" fill="#FF79C6"/><circle cx="16.18" cy="12.49" r="1" fill="#FF79C6"/><path fill="#BD93F9" d="M9.96 19.73v-2.5h1.24zM14.94 19.73v-2.5h-1.25z"/><path stroke="#BD93F9" stroke-width=".62" d="M8.71 16.23a6.2 6.2 0 0 0 7.47 0"/><rect width="12.45" height="18.73" x="6.22" y="23.72" fill="#282A36" rx="2.5"/><path fill="#BD93F9" d="M9.96 26.22h4.98v2.5H9.96z"/><path fill="#FF79C6" d="M11.82 26.22h1.25v2.5h-1.25z"/></g></svg>